# xmcd
#
# Track frame offsets: 
#        150
#        10405
#        23073
#        34959
#        45327
#        55376
#        65040
#        74691
#        84005
#        96555
#        108164
#        118631
#        133713
#        144717
#        156332
#        167751
#        179787
#        189975
#        205094
#        217275
#        232809
#        244281
#
# Disc length: 3391 seconds
#
# Revision: 0
# Processed by: cddbd v1.5.2PL0 Copyright (c) Steve Scherf et al.
# Submitted via: ExactAudioCopy v0.99pb5
#
DISCID=480d3d16
DTITLE=Chet Atkins - Mister Sandman 22 Guitar Classics
DYEAR=2006
DGENRE=Country
TTITLE0=Main Street Breakdown
TTITLE1=Boogie Man Boogie
TTITLE2=Indian Love Call
TTITLE3=Blue Gypsy
TTITLE4=Oh By Jingo!
TTITLE5=Hello Ma Baby
TTITLE6=Memphis Blues
TTITLE7=Alice Blue Gown
TTITLE8=South
TTITLE9=Alabama Jubilee
TTITLE10=Corrine, Corrina
TTITLE11=Indiana (Back Home Again In Indiana)
TTITLE12=Red Wing
TTITLE13=Frankie And Johnny
TTITLE14=A Gay Ranchero
TTITLE15=Honeysuckle Rose
TTITLE16=Silver Bell
TTITLE17=The Birth Of The Blues
TTITLE18=Have You Ever Been Lonely
TTITLE19=Caravan
TTITLE20=Old Man River
TTITLE21=Mister Sandman
EXTD=
EXTT0=
EXTT1=
EXTT2=
EXTT3=
EXTT4=
EXTT5=
EXTT6=
EXTT7=
EXTT8=
EXTT9=
EXTT10=
EXTT11=
EXTT12=
EXTT13=
EXTT14=
EXTT15=
EXTT16=
EXTT17=
EXTT18=
EXTT19=
EXTT20=
EXTT21=
PLAYORDER=
